<mxfile host="www.draw.io" modified="2020-01-22T22:02:41.329Z" agent="Mozilla/5.0 (Windows NT 10.0; Win64; x64) AppleWebKit/537.36 (KHTML, like Gecko) Chrome/79.0.3945.117 Safari/537.36" etag="L4dv4DAPC0XwbNFG92uB" version="12.5.6" type="github" pages="2">
  <diagram name="Document SDK 2.0 Mindmap" id="ad52d381-51e7-2e0d-a935-2d0ddd2fd229">
    <mxGraphModel dx="1038" dy="580" grid="1" gridSize="10" guides="1" tooltips="1" connect="1" arrows="1" fold="1" page="1" pageScale="1" pageWidth="1100" pageHeight="850" background="#ffffff" math="0" shadow="0">
      <root>
        <mxCell id="0"/>
        <mxCell id="1" parent="0"/>
        <mxCell id="26DRuk9L7VsWbkv16E09-14" value="" style="rounded=0;whiteSpace=wrap;html=1;dashed=1;" vertex="1" parent="1">
          <mxGeometry x="10" y="380" width="90" height="170" as="geometry"/>
        </mxCell>
        <mxCell id="26DRuk9L7VsWbkv16E09-10" value="Investigate wrt to API, but do not implement" style="rounded=0;whiteSpace=wrap;html=1;verticalAlign=bottom;dashed=1;" vertex="1" parent="1">
          <mxGeometry x="208" y="395" width="282" height="105" as="geometry"/>
        </mxCell>
        <mxCell id="26DRuk9L7VsWbkv16E09-24" style="rounded=0;orthogonalLoop=1;jettySize=auto;html=1;exitX=0;exitY=0;exitDx=0;exitDy=0;entryX=1;entryY=1;entryDx=0;entryDy=0;" edge="1" parent="1" source="26DRuk9L7VsWbkv16E09-1" target="26DRuk9L7VsWbkv16E09-12">
          <mxGeometry relative="1" as="geometry"/>
        </mxCell>
        <mxCell id="26DRuk9L7VsWbkv16E09-25" style="edgeStyle=none;rounded=0;orthogonalLoop=1;jettySize=auto;html=1;exitX=0;exitY=0.5;exitDx=0;exitDy=0;entryX=1;entryY=0.5;entryDx=0;entryDy=0;" edge="1" parent="1" source="26DRuk9L7VsWbkv16E09-1" target="26DRuk9L7VsWbkv16E09-11">
          <mxGeometry relative="1" as="geometry"/>
        </mxCell>
        <mxCell id="26DRuk9L7VsWbkv16E09-26" style="edgeStyle=none;rounded=0;orthogonalLoop=1;jettySize=auto;html=1;exitX=0.5;exitY=0;exitDx=0;exitDy=0;entryX=0.5;entryY=1;entryDx=0;entryDy=0;" edge="1" parent="1" source="26DRuk9L7VsWbkv16E09-1" target="26DRuk9L7VsWbkv16E09-13">
          <mxGeometry relative="1" as="geometry"/>
        </mxCell>
        <mxCell id="26DRuk9L7VsWbkv16E09-32" style="edgeStyle=none;rounded=0;orthogonalLoop=1;jettySize=auto;html=1;exitX=1;exitY=0;exitDx=0;exitDy=0;entryX=0;entryY=1;entryDx=0;entryDy=0;" edge="1" parent="1" source="26DRuk9L7VsWbkv16E09-1" target="26DRuk9L7VsWbkv16E09-31">
          <mxGeometry relative="1" as="geometry"/>
        </mxCell>
        <mxCell id="26DRuk9L7VsWbkv16E09-38" style="edgeStyle=none;rounded=0;orthogonalLoop=1;jettySize=auto;html=1;exitX=1;exitY=0.5;exitDx=0;exitDy=0;entryX=0;entryY=0.5;entryDx=0;entryDy=0;" edge="1" parent="1" source="26DRuk9L7VsWbkv16E09-1" target="26DRuk9L7VsWbkv16E09-37">
          <mxGeometry relative="1" as="geometry"/>
        </mxCell>
        <mxCell id="26DRuk9L7VsWbkv16E09-44" style="edgeStyle=none;rounded=0;orthogonalLoop=1;jettySize=auto;html=1;exitX=1;exitY=1;exitDx=0;exitDy=0;" edge="1" parent="1" source="26DRuk9L7VsWbkv16E09-1" target="26DRuk9L7VsWbkv16E09-43">
          <mxGeometry relative="1" as="geometry"/>
        </mxCell>
        <mxCell id="n4UrVZoiI_uGFLUXMeBl-2" style="edgeStyle=none;rounded=0;orthogonalLoop=1;jettySize=auto;html=1;exitX=0.5;exitY=1;exitDx=0;exitDy=0;entryX=0.5;entryY=0;entryDx=0;entryDy=0;" edge="1" parent="1" source="26DRuk9L7VsWbkv16E09-1" target="n4UrVZoiI_uGFLUXMeBl-1">
          <mxGeometry relative="1" as="geometry"/>
        </mxCell>
        <mxCell id="26DRuk9L7VsWbkv16E09-1" value="&lt;b&gt;Document SDK V2.0&lt;/b&gt;" style="ellipse;whiteSpace=wrap;html=1;fillColor=#d5e8d4;strokeColor=#82b366;" vertex="1" parent="1">
          <mxGeometry x="450" y="190" width="170" height="110" as="geometry"/>
        </mxCell>
        <mxCell id="26DRuk9L7VsWbkv16E09-2" value="Support of Multiple Vendors" style="ellipse;whiteSpace=wrap;html=1;fillColor=#dae8fc;strokeColor=#6c8ebf;" vertex="1" parent="1">
          <mxGeometry x="160" y="300" width="120" height="80" as="geometry"/>
        </mxCell>
        <mxCell id="26DRuk9L7VsWbkv16E09-3" value="MicroBlink" style="ellipse;whiteSpace=wrap;html=1;" vertex="1" parent="1">
          <mxGeometry x="10" y="395" width="90" height="60" as="geometry"/>
        </mxCell>
        <mxCell id="26DRuk9L7VsWbkv16E09-4" value="DaonIDCapture" style="ellipse;whiteSpace=wrap;html=1;" vertex="1" parent="1">
          <mxGeometry x="110" y="395" width="90" height="60" as="geometry"/>
        </mxCell>
        <mxCell id="26DRuk9L7VsWbkv16E09-5" value="Regula" style="ellipse;whiteSpace=wrap;html=1;dashed=1;" vertex="1" parent="1">
          <mxGeometry x="304" y="400" width="90" height="60" as="geometry"/>
        </mxCell>
        <mxCell id="26DRuk9L7VsWbkv16E09-6" value="AuthenticID" style="ellipse;whiteSpace=wrap;html=1;dashed=1;" vertex="1" parent="1">
          <mxGeometry x="209" y="400" width="90" height="60" as="geometry"/>
        </mxCell>
        <mxCell id="26DRuk9L7VsWbkv16E09-7" value="Anyline" style="ellipse;whiteSpace=wrap;html=1;dashed=1;" vertex="1" parent="1">
          <mxGeometry x="400" y="400" width="90" height="60" as="geometry"/>
        </mxCell>
        <mxCell id="26DRuk9L7VsWbkv16E09-8" value="MicroBlink 5.0" style="ellipse;whiteSpace=wrap;html=1;" vertex="1" parent="1">
          <mxGeometry x="10" y="480" width="90" height="60" as="geometry"/>
        </mxCell>
        <mxCell id="26DRuk9L7VsWbkv16E09-22" value="Direct API" style="edgeStyle=orthogonalEdgeStyle;rounded=0;orthogonalLoop=1;jettySize=auto;html=1;exitX=0;exitY=1;exitDx=0;exitDy=0;entryX=0.5;entryY=0;entryDx=0;entryDy=0;dashed=1;" edge="1" parent="1" source="26DRuk9L7VsWbkv16E09-11" target="26DRuk9L7VsWbkv16E09-14">
          <mxGeometry relative="1" as="geometry"/>
        </mxCell>
        <mxCell id="26DRuk9L7VsWbkv16E09-23" value="Camera Mgmt?" style="edgeStyle=orthogonalEdgeStyle;rounded=0;orthogonalLoop=1;jettySize=auto;html=1;exitX=0.5;exitY=1;exitDx=0;exitDy=0;entryX=0.276;entryY=0.067;entryDx=0;entryDy=0;entryPerimeter=0;dashed=1;" edge="1" parent="1" source="26DRuk9L7VsWbkv16E09-11" target="26DRuk9L7VsWbkv16E09-4">
          <mxGeometry relative="1" as="geometry">
            <Array as="points">
              <mxPoint x="220" y="290"/>
              <mxPoint x="135" y="290"/>
            </Array>
          </mxGeometry>
        </mxCell>
        <mxCell id="26DRuk9L7VsWbkv16E09-11" value="Automated Testing" style="ellipse;whiteSpace=wrap;html=1;fillColor=#dae8fc;strokeColor=#6c8ebf;" vertex="1" parent="1">
          <mxGeometry x="160" y="180" width="120" height="80" as="geometry"/>
        </mxCell>
        <mxCell id="26DRuk9L7VsWbkv16E09-28" style="edgeStyle=none;rounded=0;orthogonalLoop=1;jettySize=auto;html=1;exitX=0;exitY=0;exitDx=0;exitDy=0;entryX=1;entryY=0.5;entryDx=0;entryDy=0;" edge="1" parent="1" source="26DRuk9L7VsWbkv16E09-12" target="26DRuk9L7VsWbkv16E09-27">
          <mxGeometry relative="1" as="geometry"/>
        </mxCell>
        <mxCell id="26DRuk9L7VsWbkv16E09-30" value="" style="edgeStyle=none;rounded=0;orthogonalLoop=1;jettySize=auto;html=1;" edge="1" parent="1" source="26DRuk9L7VsWbkv16E09-12" target="26DRuk9L7VsWbkv16E09-29">
          <mxGeometry relative="1" as="geometry"/>
        </mxCell>
        <mxCell id="26DRuk9L7VsWbkv16E09-12" value="Image MetaData" style="ellipse;whiteSpace=wrap;html=1;fillColor=#dae8fc;strokeColor=#6c8ebf;" vertex="1" parent="1">
          <mxGeometry x="260" y="90" width="120" height="80" as="geometry"/>
        </mxCell>
        <mxCell id="26DRuk9L7VsWbkv16E09-13" value="NFC" style="ellipse;whiteSpace=wrap;html=1;fillColor=#dae8fc;strokeColor=#6c8ebf;" vertex="1" parent="1">
          <mxGeometry x="490" y="70" width="120" height="80" as="geometry"/>
        </mxCell>
        <mxCell id="26DRuk9L7VsWbkv16E09-15" value="" style="endArrow=classic;html=1;exitX=0;exitY=0.5;exitDx=0;exitDy=0;entryX=1;entryY=0;entryDx=0;entryDy=0;" edge="1" parent="1" source="26DRuk9L7VsWbkv16E09-2" target="26DRuk9L7VsWbkv16E09-14">
          <mxGeometry width="50" height="50" relative="1" as="geometry">
            <mxPoint x="70" y="330" as="sourcePoint"/>
            <mxPoint x="120" y="280" as="targetPoint"/>
          </mxGeometry>
        </mxCell>
        <mxCell id="26DRuk9L7VsWbkv16E09-17" value="" style="endArrow=classic;html=1;exitX=0;exitY=1;exitDx=0;exitDy=0;" edge="1" parent="1" source="26DRuk9L7VsWbkv16E09-2">
          <mxGeometry width="50" height="50" relative="1" as="geometry">
            <mxPoint x="10" y="620" as="sourcePoint"/>
            <mxPoint x="170" y="390" as="targetPoint"/>
          </mxGeometry>
        </mxCell>
        <mxCell id="26DRuk9L7VsWbkv16E09-18" value="" style="endArrow=classic;html=1;exitX=1;exitY=1;exitDx=0;exitDy=0;entryX=0.382;entryY=0.015;entryDx=0;entryDy=0;entryPerimeter=0;" edge="1" parent="1" source="26DRuk9L7VsWbkv16E09-2" target="26DRuk9L7VsWbkv16E09-10">
          <mxGeometry width="50" height="50" relative="1" as="geometry">
            <mxPoint x="10" y="620" as="sourcePoint"/>
            <mxPoint x="360" y="390" as="targetPoint"/>
          </mxGeometry>
        </mxCell>
        <mxCell id="26DRuk9L7VsWbkv16E09-20" value="" style="endArrow=classic;html=1;exitX=0.5;exitY=1;exitDx=0;exitDy=0;entryX=0.33;entryY=-0.003;entryDx=0;entryDy=0;entryPerimeter=0;" edge="1" parent="1" source="26DRuk9L7VsWbkv16E09-1" target="26DRuk9L7VsWbkv16E09-9">
          <mxGeometry width="50" height="50" relative="1" as="geometry">
            <mxPoint x="10" y="620" as="sourcePoint"/>
            <mxPoint x="60" y="570" as="targetPoint"/>
          </mxGeometry>
        </mxCell>
        <mxCell id="26DRuk9L7VsWbkv16E09-21" value="" style="endArrow=classic;html=1;exitX=0;exitY=0.5;exitDx=0;exitDy=0;entryX=1;entryY=0.5;entryDx=0;entryDy=0;dashed=1;" edge="1" parent="1" source="26DRuk9L7VsWbkv16E09-9" target="26DRuk9L7VsWbkv16E09-2">
          <mxGeometry width="50" height="50" relative="1" as="geometry">
            <mxPoint x="10" y="620" as="sourcePoint"/>
            <mxPoint x="60" y="570" as="targetPoint"/>
          </mxGeometry>
        </mxCell>
        <mxCell id="26DRuk9L7VsWbkv16E09-27" value="Emulate AuthenticID" style="ellipse;whiteSpace=wrap;html=1;" vertex="1" parent="1">
          <mxGeometry x="120" y="50" width="90" height="60" as="geometry"/>
        </mxCell>
        <mxCell id="26DRuk9L7VsWbkv16E09-29" value="Extra Daon Checks?" style="ellipse;whiteSpace=wrap;html=1;" vertex="1" parent="1">
          <mxGeometry x="90" y="110" width="90" height="60" as="geometry"/>
        </mxCell>
        <mxCell id="26DRuk9L7VsWbkv16E09-34" style="edgeStyle=none;rounded=0;orthogonalLoop=1;jettySize=auto;html=1;exitX=1;exitY=0;exitDx=0;exitDy=0;" edge="1" parent="1" source="26DRuk9L7VsWbkv16E09-31" target="26DRuk9L7VsWbkv16E09-33">
          <mxGeometry relative="1" as="geometry"/>
        </mxCell>
        <mxCell id="26DRuk9L7VsWbkv16E09-36" style="edgeStyle=none;rounded=0;orthogonalLoop=1;jettySize=auto;html=1;exitX=1;exitY=0;exitDx=0;exitDy=0;" edge="1" parent="1" source="26DRuk9L7VsWbkv16E09-31" target="26DRuk9L7VsWbkv16E09-35">
          <mxGeometry relative="1" as="geometry"/>
        </mxCell>
        <mxCell id="26DRuk9L7VsWbkv16E09-33" value="Move to Sample App" style="ellipse;whiteSpace=wrap;html=1;" vertex="1" parent="1">
          <mxGeometry x="800" y="30" width="90" height="60" as="geometry"/>
        </mxCell>
        <mxCell id="26DRuk9L7VsWbkv16E09-35" value="Must be POC friendly" style="ellipse;whiteSpace=wrap;html=1;" vertex="1" parent="1">
          <mxGeometry x="840" y="90" width="90" height="60" as="geometry"/>
        </mxCell>
        <mxCell id="26DRuk9L7VsWbkv16E09-41" style="edgeStyle=none;rounded=0;orthogonalLoop=1;jettySize=auto;html=1;exitX=1;exitY=0.5;exitDx=0;exitDy=0;entryX=0.022;entryY=0.383;entryDx=0;entryDy=0;entryPerimeter=0;" edge="1" parent="1" source="26DRuk9L7VsWbkv16E09-37" target="26DRuk9L7VsWbkv16E09-39">
          <mxGeometry relative="1" as="geometry"/>
        </mxCell>
        <mxCell id="26DRuk9L7VsWbkv16E09-42" style="edgeStyle=none;rounded=0;orthogonalLoop=1;jettySize=auto;html=1;exitX=1;exitY=0.5;exitDx=0;exitDy=0;entryX=0;entryY=0.5;entryDx=0;entryDy=0;" edge="1" parent="1" source="26DRuk9L7VsWbkv16E09-37" target="26DRuk9L7VsWbkv16E09-40">
          <mxGeometry relative="1" as="geometry"/>
        </mxCell>
        <mxCell id="26DRuk9L7VsWbkv16E09-37" value="Migration Path" style="ellipse;whiteSpace=wrap;html=1;fillColor=#dae8fc;strokeColor=#6c8ebf;" vertex="1" parent="1">
          <mxGeometry x="700" y="200" width="120" height="80" as="geometry"/>
        </mxCell>
        <mxCell id="26DRuk9L7VsWbkv16E09-39" value="Document how to move" style="ellipse;whiteSpace=wrap;html=1;" vertex="1" parent="1">
          <mxGeometry x="860" y="180" width="90" height="60" as="geometry"/>
        </mxCell>
        <mxCell id="26DRuk9L7VsWbkv16E09-40" value="Minimize changes but not at expense of funcationality" style="ellipse;whiteSpace=wrap;html=1;" vertex="1" parent="1">
          <mxGeometry x="860" y="250" width="130" height="80" as="geometry"/>
        </mxCell>
        <mxCell id="26DRuk9L7VsWbkv16E09-48" style="edgeStyle=none;rounded=0;orthogonalLoop=1;jettySize=auto;html=1;exitX=1;exitY=1;exitDx=0;exitDy=0;" edge="1" parent="1" source="26DRuk9L7VsWbkv16E09-43" target="26DRuk9L7VsWbkv16E09-47">
          <mxGeometry relative="1" as="geometry"/>
        </mxCell>
        <mxCell id="26DRuk9L7VsWbkv16E09-49" style="edgeStyle=none;rounded=0;orthogonalLoop=1;jettySize=auto;html=1;exitX=1;exitY=1;exitDx=0;exitDy=0;" edge="1" parent="1" source="26DRuk9L7VsWbkv16E09-43" target="26DRuk9L7VsWbkv16E09-45">
          <mxGeometry relative="1" as="geometry"/>
        </mxCell>
        <mxCell id="26DRuk9L7VsWbkv16E09-50" style="edgeStyle=none;rounded=0;orthogonalLoop=1;jettySize=auto;html=1;exitX=1;exitY=1;exitDx=0;exitDy=0;" edge="1" parent="1" source="26DRuk9L7VsWbkv16E09-43" target="26DRuk9L7VsWbkv16E09-46">
          <mxGeometry relative="1" as="geometry"/>
        </mxCell>
        <mxCell id="26DRuk9L7VsWbkv16E09-43" value="Config" style="ellipse;whiteSpace=wrap;html=1;fillColor=#dae8fc;strokeColor=#6c8ebf;" vertex="1" parent="1">
          <mxGeometry x="710" y="315" width="120" height="80" as="geometry"/>
        </mxCell>
        <mxCell id="26DRuk9L7VsWbkv16E09-53" style="edgeStyle=none;rounded=0;orthogonalLoop=1;jettySize=auto;html=1;exitX=1;exitY=1;exitDx=0;exitDy=0;" edge="1" parent="1" source="26DRuk9L7VsWbkv16E09-45" target="26DRuk9L7VsWbkv16E09-51">
          <mxGeometry relative="1" as="geometry"/>
        </mxCell>
        <mxCell id="26DRuk9L7VsWbkv16E09-45" value="Global vs Doc Specific" style="ellipse;whiteSpace=wrap;html=1;" vertex="1" parent="1">
          <mxGeometry x="830" y="410" width="90" height="60" as="geometry"/>
        </mxCell>
        <mxCell id="26DRuk9L7VsWbkv16E09-46" value="Change at runtime" style="ellipse;whiteSpace=wrap;html=1;" vertex="1" parent="1">
          <mxGeometry x="890" y="350" width="90" height="60" as="geometry"/>
        </mxCell>
        <mxCell id="26DRuk9L7VsWbkv16E09-52" style="edgeStyle=none;rounded=0;orthogonalLoop=1;jettySize=auto;html=1;exitX=1;exitY=1;exitDx=0;exitDy=0;" edge="1" parent="1" source="26DRuk9L7VsWbkv16E09-47" target="26DRuk9L7VsWbkv16E09-51">
          <mxGeometry relative="1" as="geometry"/>
        </mxCell>
        <mxCell id="26DRuk9L7VsWbkv16E09-47" value="Convention - sensible defaults" style="ellipse;whiteSpace=wrap;html=1;" vertex="1" parent="1">
          <mxGeometry x="760" y="460" width="90" height="60" as="geometry"/>
        </mxCell>
        <mxCell id="26DRuk9L7VsWbkv16E09-51" value="Abstract developer from need for domain specific knowledge" style="ellipse;whiteSpace=wrap;html=1;" vertex="1" parent="1">
          <mxGeometry x="880" y="510" width="140" height="100" as="geometry"/>
        </mxCell>
        <mxCell id="n4UrVZoiI_uGFLUXMeBl-3" style="edgeStyle=orthogonalEdgeStyle;rounded=0;orthogonalLoop=1;jettySize=auto;html=1;exitX=0;exitY=0.5;exitDx=0;exitDy=0;entryX=0.5;entryY=1;entryDx=0;entryDy=0;dashed=1;" edge="1" parent="1" source="n4UrVZoiI_uGFLUXMeBl-1" target="26DRuk9L7VsWbkv16E09-4">
          <mxGeometry relative="1" as="geometry"/>
        </mxCell>
        <mxCell id="n4UrVZoiI_uGFLUXMeBl-4" style="edgeStyle=orthogonalEdgeStyle;rounded=0;orthogonalLoop=1;jettySize=auto;html=1;exitX=0;exitY=1;exitDx=0;exitDy=0;entryX=0.5;entryY=1;entryDx=0;entryDy=0;dashed=1;" edge="1" parent="1" source="n4UrVZoiI_uGFLUXMeBl-1" target="26DRuk9L7VsWbkv16E09-8">
          <mxGeometry relative="1" as="geometry"/>
        </mxCell>
        <mxCell id="n4UrVZoiI_uGFLUXMeBl-5" style="edgeStyle=orthogonalEdgeStyle;rounded=0;orthogonalLoop=1;jettySize=auto;html=1;exitX=1;exitY=0;exitDx=0;exitDy=0;entryX=1;entryY=0.5;entryDx=0;entryDy=0;dashed=1;" edge="1" parent="1" source="n4UrVZoiI_uGFLUXMeBl-1" target="26DRuk9L7VsWbkv16E09-13">
          <mxGeometry relative="1" as="geometry">
            <Array as="points">
              <mxPoint x="690" y="542"/>
              <mxPoint x="690" y="110"/>
            </Array>
          </mxGeometry>
        </mxCell>
        <mxCell id="n4UrVZoiI_uGFLUXMeBl-1" value="Improve Document Quality" style="ellipse;whiteSpace=wrap;html=1;fillColor=#dae8fc;strokeColor=#6c8ebf;" vertex="1" parent="1">
          <mxGeometry x="460" y="530" width="120" height="80" as="geometry"/>
        </mxCell>
        <mxCell id="n4UrVZoiI_uGFLUXMeBl-8" style="edgeStyle=orthogonalEdgeStyle;rounded=0;orthogonalLoop=1;jettySize=auto;html=1;exitX=0;exitY=0;exitDx=0;exitDy=0;dashed=1;" edge="1" parent="1" source="n4UrVZoiI_uGFLUXMeBl-6" target="26DRuk9L7VsWbkv16E09-12">
          <mxGeometry relative="1" as="geometry">
            <Array as="points">
              <mxPoint x="320" y="52"/>
            </Array>
          </mxGeometry>
        </mxCell>
        <mxCell id="n4UrVZoiI_uGFLUXMeBl-11" style="edgeStyle=orthogonalEdgeStyle;rounded=0;orthogonalLoop=1;jettySize=auto;html=1;exitX=1;exitY=0;exitDx=0;exitDy=0;entryX=0.64;entryY=0.013;entryDx=0;entryDy=0;entryPerimeter=0;dashed=1;" edge="1" parent="1" source="n4UrVZoiI_uGFLUXMeBl-6" target="26DRuk9L7VsWbkv16E09-13">
          <mxGeometry relative="1" as="geometry">
            <Array as="points">
              <mxPoint x="472" y="50"/>
              <mxPoint x="567" y="50"/>
            </Array>
          </mxGeometry>
        </mxCell>
        <mxCell id="n4UrVZoiI_uGFLUXMeBl-12" style="edgeStyle=orthogonalEdgeStyle;rounded=0;orthogonalLoop=1;jettySize=auto;html=1;exitX=0.5;exitY=1;exitDx=0;exitDy=0;entryX=0.5;entryY=1;entryDx=0;entryDy=0;dashed=1;" edge="1" parent="1" source="n4UrVZoiI_uGFLUXMeBl-6" target="26DRuk9L7VsWbkv16E09-6">
          <mxGeometry relative="1" as="geometry">
            <Array as="points">
              <mxPoint x="430" y="480"/>
              <mxPoint x="254" y="480"/>
            </Array>
          </mxGeometry>
        </mxCell>
        <mxCell id="n4UrVZoiI_uGFLUXMeBl-6" value="Doc. Auth" style="ellipse;whiteSpace=wrap;html=1;fillColor=#dae8fc;strokeColor=#6c8ebf;" vertex="1" parent="1">
          <mxGeometry x="370" y="40" width="120" height="80" as="geometry"/>
        </mxCell>
        <mxCell id="26DRuk9L7VsWbkv16E09-9" value="Extensibility" style="ellipse;whiteSpace=wrap;html=1;fillColor=#dae8fc;strokeColor=#6c8ebf;" vertex="1" parent="1">
          <mxGeometry x="600" y="400" width="120" height="80" as="geometry"/>
        </mxCell>
        <mxCell id="26DRuk9L7VsWbkv16E09-31" value="Remove &lt;br&gt;Default UI" style="ellipse;whiteSpace=wrap;html=1;fillColor=#dae8fc;strokeColor=#6c8ebf;" vertex="1" parent="1">
          <mxGeometry x="670" y="100" width="120" height="80" as="geometry"/>
        </mxCell>
        <mxCell id="n4UrVZoiI_uGFLUXMeBl-13" value="" style="endArrow=classic;html=1;dashed=1;entryX=1;entryY=1;entryDx=0;entryDy=0;exitX=0.329;exitY=-0.005;exitDx=0;exitDy=0;exitPerimeter=0;" edge="1" parent="1" source="26DRuk9L7VsWbkv16E09-1" target="n4UrVZoiI_uGFLUXMeBl-6">
          <mxGeometry width="50" height="50" relative="1" as="geometry">
            <mxPoint x="10" y="680" as="sourcePoint"/>
            <mxPoint x="60" y="630" as="targetPoint"/>
          </mxGeometry>
        </mxCell>
      </root>
    </mxGraphModel>
  </diagram>
  <diagram id="lcVdUpNhbpnf7a28V5l2" name="NFC Read Flow">
    <mxGraphModel dx="1038" dy="614" grid="1" gridSize="10" guides="1" tooltips="1" connect="1" arrows="1" fold="1" page="1" pageScale="1" pageWidth="827" pageHeight="1169" math="0" shadow="0">
      <root>
        <mxCell id="yhJoEX59a98nHaoArZQx-0"/>
        <mxCell id="yhJoEX59a98nHaoArZQx-1" parent="yhJoEX59a98nHaoArZQx-0"/>
        <mxCell id="vW60nO0JE0_KMwUsozgh-0" value="App" style="shape=umlLifeline;perimeter=lifelinePerimeter;whiteSpace=wrap;html=1;container=1;collapsible=0;recursiveResize=0;outlineConnect=0;dashed=1;" vertex="1" parent="yhJoEX59a98nHaoArZQx-1">
          <mxGeometry x="20" y="10" width="100" height="830" as="geometry"/>
        </mxCell>
        <mxCell id="vW60nO0JE0_KMwUsozgh-1" value="Daon Document SDK" style="shape=umlLifeline;perimeter=lifelinePerimeter;whiteSpace=wrap;html=1;container=1;collapsible=0;recursiveResize=0;outlineConnect=0;dashed=1;" vertex="1" parent="yhJoEX59a98nHaoArZQx-1">
          <mxGeometry x="223" y="10" width="100" height="820" as="geometry"/>
        </mxCell>
        <mxCell id="vW60nO0JE0_KMwUsozgh-4" value="" style="html=1;points=[];perimeter=orthogonalPerimeter;dashed=1;" vertex="1" parent="vW60nO0JE0_KMwUsozgh-1">
          <mxGeometry x="45" y="150" width="10" height="440" as="geometry"/>
        </mxCell>
        <mxCell id="vW60nO0JE0_KMwUsozgh-10" value="readDocument" style="endArrow=block;endFill=1;html=1;edgeStyle=orthogonalEdgeStyle;align=left;verticalAlign=top;dashed=1;exitX=1.24;exitY=0.101;exitDx=0;exitDy=0;exitPerimeter=0;" edge="1" parent="vW60nO0JE0_KMwUsozgh-1" source="vW60nO0JE0_KMwUsozgh-4">
          <mxGeometry x="-0.1429" y="-60" relative="1" as="geometry">
            <mxPoint x="87" y="209" as="sourcePoint"/>
            <mxPoint x="58" y="263" as="targetPoint"/>
            <Array as="points">
              <mxPoint x="157" y="196"/>
              <mxPoint x="157" y="250"/>
              <mxPoint x="58" y="250"/>
            </Array>
            <mxPoint as="offset"/>
          </mxGeometry>
        </mxCell>
        <mxCell id="vW60nO0JE0_KMwUsozgh-2" value="NFC Metadata Service" style="shape=umlLifeline;perimeter=lifelinePerimeter;whiteSpace=wrap;html=1;container=1;collapsible=0;recursiveResize=0;outlineConnect=0;dashed=1;" vertex="1" parent="yhJoEX59a98nHaoArZQx-1">
          <mxGeometry x="427" y="10" width="100" height="820" as="geometry"/>
        </mxCell>
        <mxCell id="vW60nO0JE0_KMwUsozgh-13" value="" style="html=1;points=[];perimeter=orthogonalPerimeter;dashed=1;" vertex="1" parent="vW60nO0JE0_KMwUsozgh-2">
          <mxGeometry x="43" y="290" width="10" height="80" as="geometry"/>
        </mxCell>
        <mxCell id="vW60nO0JE0_KMwUsozgh-14" value="GET /nfcinstructions" style="html=1;verticalAlign=bottom;endArrow=block;entryX=0;entryY=0;dashed=1;" edge="1" target="vW60nO0JE0_KMwUsozgh-13" parent="vW60nO0JE0_KMwUsozgh-2">
          <mxGeometry relative="1" as="geometry">
            <mxPoint x="-147" y="290" as="sourcePoint"/>
          </mxGeometry>
        </mxCell>
        <mxCell id="vW60nO0JE0_KMwUsozgh-3" value="Onboarding Server" style="shape=umlLifeline;perimeter=lifelinePerimeter;whiteSpace=wrap;html=1;container=1;collapsible=0;recursiveResize=0;outlineConnect=0;dashed=1;" vertex="1" parent="yhJoEX59a98nHaoArZQx-1">
          <mxGeometry x="630" y="10" width="100" height="810" as="geometry"/>
        </mxCell>
        <mxCell id="vW60nO0JE0_KMwUsozgh-23" value="" style="html=1;points=[];perimeter=orthogonalPerimeter;dashed=1;" vertex="1" parent="vW60nO0JE0_KMwUsozgh-3">
          <mxGeometry x="45" y="610" width="10" height="80" as="geometry"/>
        </mxCell>
        <mxCell id="vW60nO0JE0_KMwUsozgh-30" value="" style="html=1;points=[];perimeter=orthogonalPerimeter;dashed=1;" vertex="1" parent="vW60nO0JE0_KMwUsozgh-3">
          <mxGeometry x="45" y="750" width="10" height="40" as="geometry"/>
        </mxCell>
        <mxCell id="vW60nO0JE0_KMwUsozgh-31" value="Validate NFC Signature" style="edgeStyle=orthogonalEdgeStyle;html=1;align=left;spacingLeft=2;endArrow=block;rounded=0;entryX=1;entryY=0;dashed=1;exitX=1.18;exitY=0.708;exitDx=0;exitDy=0;exitPerimeter=0;" edge="1" target="vW60nO0JE0_KMwUsozgh-30" parent="vW60nO0JE0_KMwUsozgh-3" source="vW60nO0JE0_KMwUsozgh-23">
          <mxGeometry x="0.0083" y="-20" relative="1" as="geometry">
            <mxPoint x="50" y="730" as="sourcePoint"/>
            <Array as="points">
              <mxPoint x="75" y="667"/>
              <mxPoint x="75" y="750"/>
            </Array>
            <mxPoint as="offset"/>
          </mxGeometry>
        </mxCell>
        <mxCell id="vW60nO0JE0_KMwUsozgh-5" value="readDocumentNFC" style="html=1;verticalAlign=bottom;startArrow=oval;endArrow=block;startSize=8;dashed=1;" edge="1" parent="yhJoEX59a98nHaoArZQx-1" source="vW60nO0JE0_KMwUsozgh-0">
          <mxGeometry relative="1" as="geometry">
            <mxPoint x="208" y="160" as="sourcePoint"/>
            <mxPoint x="267" y="165" as="targetPoint"/>
            <Array as="points">
              <mxPoint x="170" y="165"/>
            </Array>
          </mxGeometry>
        </mxCell>
        <mxCell id="vW60nO0JE0_KMwUsozgh-12" value="readDocument Callbacks" style="html=1;verticalAlign=bottom;endArrow=async;dashed=1;endSize=8;exitX=-0.44;exitY=0.33;exitDx=0;exitDy=0;exitPerimeter=0;endFill=0;" edge="1" parent="yhJoEX59a98nHaoArZQx-1" source="vW60nO0JE0_KMwUsozgh-4" target="vW60nO0JE0_KMwUsozgh-0">
          <mxGeometry relative="1" as="geometry">
            <mxPoint x="100" y="740" as="sourcePoint"/>
            <mxPoint x="20" y="740" as="targetPoint"/>
          </mxGeometry>
        </mxCell>
        <mxCell id="vW60nO0JE0_KMwUsozgh-15" value="return NFC Instruction" style="html=1;verticalAlign=bottom;endArrow=open;dashed=1;endSize=8;exitX=0;exitY=0.95;entryX=0.92;entryY=0.94;entryDx=0;entryDy=0;entryPerimeter=0;" edge="1" parent="yhJoEX59a98nHaoArZQx-1">
          <mxGeometry relative="1" as="geometry">
            <mxPoint x="280.20000000000005" y="375" as="targetPoint"/>
            <mxPoint x="473" y="376" as="sourcePoint"/>
          </mxGeometry>
        </mxCell>
        <mxCell id="vW60nO0JE0_KMwUsozgh-18" value="NFC Instructions Callback" style="html=1;verticalAlign=bottom;endArrow=async;dashed=1;endSize=8;exitX=0.2;exitY=0.415;exitDx=0;exitDy=0;exitPerimeter=0;endFill=0;" edge="1" parent="yhJoEX59a98nHaoArZQx-1">
          <mxGeometry relative="1" as="geometry">
            <mxPoint x="270.5" y="400" as="sourcePoint"/>
            <mxPoint x="70" y="400" as="targetPoint"/>
          </mxGeometry>
        </mxCell>
        <mxCell id="vW60nO0JE0_KMwUsozgh-19" value="unlock chip" style="endArrow=block;endFill=1;html=1;edgeStyle=orthogonalEdgeStyle;align=left;verticalAlign=top;dashed=1;entryX=1;entryY=0.659;entryDx=0;entryDy=0;entryPerimeter=0;exitX=1.24;exitY=0.101;exitDx=0;exitDy=0;exitPerimeter=0;" edge="1" parent="yhJoEX59a98nHaoArZQx-1" target="vW60nO0JE0_KMwUsozgh-4">
          <mxGeometry x="-0.6441" y="-6" relative="1" as="geometry">
            <mxPoint x="280" y="424" as="sourcePoint"/>
            <mxPoint x="281" y="478" as="targetPoint"/>
            <Array as="points">
              <mxPoint x="400" y="424"/>
              <mxPoint x="400" y="463"/>
            </Array>
            <mxPoint as="offset"/>
          </mxGeometry>
        </mxCell>
        <mxCell id="vW60nO0JE0_KMwUsozgh-20" value="read chip" style="endArrow=block;endFill=1;html=1;edgeStyle=orthogonalEdgeStyle;align=left;verticalAlign=top;dashed=1;entryX=1;entryY=0.659;entryDx=0;entryDy=0;entryPerimeter=0;exitX=1.24;exitY=0.101;exitDx=0;exitDy=0;exitPerimeter=0;" edge="1" parent="yhJoEX59a98nHaoArZQx-1">
          <mxGeometry x="-0.6441" y="-6" relative="1" as="geometry">
            <mxPoint x="282" y="500" as="sourcePoint"/>
            <mxPoint x="280" y="539" as="targetPoint"/>
            <Array as="points">
              <mxPoint x="402" y="500"/>
              <mxPoint x="402" y="539"/>
            </Array>
            <mxPoint as="offset"/>
          </mxGeometry>
        </mxCell>
        <mxCell id="vW60nO0JE0_KMwUsozgh-22" value="return Document NFC" style="html=1;verticalAlign=bottom;endArrow=async;dashed=1;endSize=8;exitX=0.2;exitY=0.415;exitDx=0;exitDy=0;exitPerimeter=0;endFill=0;" edge="1" parent="yhJoEX59a98nHaoArZQx-1">
          <mxGeometry relative="1" as="geometry">
            <mxPoint x="270.5" y="570" as="sourcePoint"/>
            <mxPoint x="70" y="570" as="targetPoint"/>
          </mxGeometry>
        </mxCell>
        <mxCell id="vW60nO0JE0_KMwUsozgh-24" value="POST /users/{id}/idchecks/{id}/documents" style="html=1;verticalAlign=bottom;endArrow=block;entryX=0;entryY=0;dashed=1;" edge="1" target="vW60nO0JE0_KMwUsozgh-23" parent="yhJoEX59a98nHaoArZQx-1" source="vW60nO0JE0_KMwUsozgh-0">
          <mxGeometry x="0.0586" relative="1" as="geometry">
            <mxPoint x="605" y="620" as="sourcePoint"/>
            <mxPoint x="1" as="offset"/>
          </mxGeometry>
        </mxCell>
        <mxCell id="vW60nO0JE0_KMwUsozgh-25" value="return Document" style="html=1;verticalAlign=bottom;endArrow=open;dashed=1;endSize=8;exitX=0;exitY=0.95;" edge="1" source="vW60nO0JE0_KMwUsozgh-23" parent="yhJoEX59a98nHaoArZQx-1" target="vW60nO0JE0_KMwUsozgh-0">
          <mxGeometry relative="1" as="geometry">
            <mxPoint x="605" y="696" as="targetPoint"/>
          </mxGeometry>
        </mxCell>
      </root>
    </mxGraphModel>
  </diagram>
</mxfile>
